<?xml version="1.0" encoding="utf-8"?>
<!-- Generator: Adobe Illustrator 25.4.1, SVG Export Plug-In . SVG Version: 6.00 Build 0)  -->
<svg version="1.1" id="Outline" xmlns="http://www.w3.org/2000/svg" xmlns:xlink="http://www.w3.org/1999/xlink" x="0px" y="0px"
	 viewBox="0 0 512 512" style="enable-background:new 0 0 512 512;" xml:space="preserve">
<style type="text/css">
	.st0{fill:#E8E8E8;}
</style>
<path class="st0" d="M53,170.7H459c10.2,0,18.5-9.6,18.5-21.3S469.2,128,459,128H53c-10.2,0-18.5,9.6-18.5,21.3S42.8,170.7,53,170.7
	z"/>
<path class="st0" d="M459,234.7H53c-10.2,0-18.5,9.6-18.5,21.3c0,11.8,8.3,21.3,18.5,21.3H459c10.2,0,18.5-9.6,18.5-21.3
	C477.5,244.2,469.2,234.7,459,234.7z"/>
<path class="st0" d="M459,341.3H53c-10.2,0-18.5,9.6-18.5,21.3c0,11.8,8.3,21.3,18.5,21.3H459c10.2,0,18.5-9.6,18.5-21.3
	C477.5,350.9,469.2,341.3,459,341.3z"/>
</svg>
