<?xml version="1.0" encoding="utf-8"?>
<!-- Generator: Adobe Illustrator 25.4.1, SVG Export Plug-In . SVG Version: 6.00 Build 0)  -->
<svg version="1.1" id="Outline" xmlns="http://www.w3.org/2000/svg" xmlns:xlink="http://www.w3.org/1999/xlink" x="0px" y="0px"
	 viewBox="0 0 512 512" style="enable-background:new 0 0 512 512;" xml:space="preserve">
<style type="text/css">
	.st0{fill:#E8E8E8;}
</style>
<path class="st0" d="M149.3,128h341.3c11.8,0,21.3-9.6,21.3-21.3s-9.6-21.3-21.3-21.3H149.3c-11.8,0-21.3,9.6-21.3,21.3
	S137.6,128,149.3,128z"/>
<path class="st0" d="M490.7,234.7H149.3c-11.8,0-21.3,9.6-21.3,21.3c0,11.8,9.6,21.3,21.3,21.3h341.3c11.8,0,21.3-9.6,21.3-21.3
	C512,244.2,502.4,234.7,490.7,234.7z"/>
<path class="st0" d="M490.7,384H149.3c-11.8,0-21.3,9.6-21.3,21.3s9.6,21.3,21.3,21.3h341.3c11.8,0,21.3-9.6,21.3-21.3
	S502.4,384,490.7,384z"/>
<circle class="st0" cx="42.7" cy="106.7" r="42.7"/>
<circle class="st0" cx="42.7" cy="256" r="42.7"/>
<circle class="st0" cx="42.7" cy="405.3" r="42.7"/>
</svg>
